<svg x="0" y="0" width="48" height="48" version="1.1" xmlns="http://www.w3.org/2000/svg" xmlns:xlink="http://www.w3.org/1999/xlink"><defs><linearGradient x1="11.35554" y1="11.10349" x2="49.23766" y2="49.48971" gradientUnits="userSpaceOnUse" id="color-1"><stop offset="0" stop-color="#000000" stop-opacity="0.58"></stop><stop offset="1" stop-color="#000000" stop-opacity="0"></stop></linearGradient><filter id="dropshadow"><feColorMatrix type="matrix" values="0 0 0 0 .05  0 0 0 0 .15  0 0 0 0 .1  0 0 0 .8 0"></feColorMatrix> <feOffset dx="0" dy="1"></feOffset> <feGaussianBlur stdDeviation="1"></feGaussianBlur> <feComposite in="SourceGraphic"></feComposite></filter></defs><g fill="none" stroke="none" stroke-width="none" stroke-linecap="butt" stroke-linejoin="miter" stroke-miterlimit="none" stroke-dasharray="" stroke-dashoffset="none" font-family="none" font-weight="normal" font-size="none" text-anchor="start" mix-blend-mode="normal"><g fill="#000000" stroke="none" stroke-width="1" stroke-miterlimit="4" stroke-dashoffset="0" font-family="&quot;Open Sans&quot;, sans-serif" font-size="14"></g><g id="Layer_1" fill="#000000" stroke="none" stroke-width="1" stroke-miterlimit="4" stroke-dashoffset="0" font-family="&quot;Open Sans&quot;, sans-serif" font-size="14"><g></g></g><g id="Layer_1" fill="#000000" stroke="none" stroke-width="1" stroke-miterlimit="4" stroke-dashoffset="0" font-family="&quot;Open Sans&quot;, sans-serif" font-size="14"><g></g></g><g id="svg2198" fill="#000000" stroke="none" stroke-width="1" stroke-miterlimit="4" stroke-dashoffset="0" font-family="&quot;Open Sans&quot;, sans-serif" font-size="14"><g id="layer1"></g></g><path d="M3,24c0,-11.59798 9.40202,-21 21,-21c11.59798,0 21,9.40202 21,21c0,11.59798 -9.40202,21 -21,21c-11.59798,0 -21,-9.40202 -21,-21z" fill="#f44336" stroke-width="1" stroke-miterlimit="10" stroke-dashoffset="0" font-family="sans-serif" font-size="12" filter="url(#dropshadow)"></path><path d="M30.42725,13.28792l0.00657,0c0.90642,0.53926 1.74009,1.18922 2.48259,1.93172l11.85946,11.85946c-1.36061,9.26028 -8.76537,16.55523 -18.07877,17.74931c0,0 -11.63674,-11.63674 -11.63674,-11.63674c-2.28864,-2.28864 -3.70482,-5.44976 -3.70482,-8.93963c0,-0.10994 0.00114,-0.22022 0.00394,-0.3295c0.00269,-0.1073 0.00783,-0.21501 0.01313,-0.32163c0.00012,-0.00219 -0.00012,-0.00438 0,-0.00657l0,0c0.00529,-0.10528 0.01189,-0.21046 0.01969,-0.31505c0.31843,-4.26822 2.71714,-7.93487 6.17388,-9.99138l0.00657,0c0,0 2.34622,2.34622 2.34622,2.34622l0.63767,-0.70791c0.48654,0.32805 0.97797,0.59245 1.45282,1.0673l0.7597,0.7597c-0.06523,-0.76419 -0.39019,-1.9964 -1.119,-3.0413l4.94056,4.94056c0,0 0,0 0,-0.00001l-4.94056,-4.94056l2.34983,-2.60844l9.30094,9.30094c0.04726,-2.5615 -1.07737,-5.04077 -2.8737,-7.11652z M27.91542,36.27783l-3.35658,-3.35658c-0.30122,0.93994 -0.49702,1.92832 -0.57334,2.95125c-0.0078,0.10459 -0.0144,0.20977 -0.0197,0.31506l0,0c-0.00011,0.00219 0.00012,0.00437 0,0.00656c-0.0053,0.10663 -0.01043,0.21433 -0.01313,0.32163c-0.0028,0.10928 -0.00394,0.21956 -0.00394,0.3295c0,0.01706 0.00003,0.03411 0.0001,0.05115c0.01704,0.00007 0.0341,0.0001 0.05116,0.0001l0.00001,0.00001c1.36641,0 2.68243,-0.2171 3.91541,-0.61867z" fill="url(#color-1)" stroke-width="1" stroke-miterlimit="10" stroke-dashoffset="0" font-family="sans-serif" font-size="12"></path><path d="M26.34983,13.71194c-0.82376,1.18103 -1.13159,2.60135 -1.13159,3.3147c0.69969,-1.23386 1.46831,-1.59013 2.22512,-2.1004l1.51361,1.68033c-2.0584,0.71413 -3.31865,3.15061 -3.31865,5.6711c0,1.21823 0.42008,4.11681 3.31865,3.99078l0,-0.01181c2.13799,-0.25302 4.14598,-2.73743 4.32684,-5.44925c0.18031,-2.70375 -0.96619,-5.33504 -2.85656,-7.51947l0.00657,0c3.45674,2.05651 5.85545,5.72317 6.17388,9.99138c0.02445,0.32095 0.03676,0.64558 0.03676,0.97275c0,6.97975 -5.66472,12.64446 -12.64446,12.64446c-6.97974,0 -12.64446,-5.66471 -12.64446,-12.64446c0,-0.10994 0.00114,-0.22022 0.00394,-0.3295c0.00269,-0.10729 0.00782,-0.21501 0.01313,-0.32162c0.00011,-0.00219 -0.00011,-0.00437 0,-0.00657c0.00529,-0.10529 0.01189,-0.21046 0.01969,-0.31506c0.31843,-4.26821 2.71715,-7.93487 6.17389,-9.99138l0.00656,0c-1.89037,2.18442 -3.03687,4.81572 -2.85656,7.51947c0.18085,2.71181 2.18885,5.19622 4.32684,5.44925l0,0.01181c2.89856,0.12603 3.31865,-2.77254 3.31865,-3.99078c0,-2.52049 -1.26024,-4.95696 -3.31865,-5.6711l1.51361,-1.68033c0.75681,0.51027 1.52544,0.86654 2.22512,2.1004c0,-0.71335 -0.30783,-2.13367 -1.13159,-3.3147l2.34983,-2.60844z" fill="#ffffff" stroke="none" stroke-width="0" stroke-miterlimit="4" stroke-dashoffset="1.8" font-family="&quot;Open Sans&quot;, sans-serif" font-size="14"></path></g></svg>